<?xml version="1.0" encoding="utf-8"?><svg xmlns="http://www.w3.org/2000/svg" xmlns:xlink="http://www.w3.org/1999/xlink" width="1680" height="844" preserveAspectRatio="xMidYMid" viewBox="0 0 1680 844" style="z-index:1;margin-right:-2px;display:block;background-repeat-y:initial;background-repeat-x:initial;background-color:rgb(241, 242, 243);animation-play-state:paused" ><g transform="translate(840,422) scale(1,1) translate(-840,-422)" style="transform:matrix(1, 0, 0, 1, 0, 0);animation-play-state:paused" ><linearGradient id="lg-0.1716661510936357" x1="0" x2="1" y1="0" y2="0" style="animation-play-state:paused" ><stop stop-color="#b4ea33" offset="0" style="animation-play-state:paused" ></stop>

  
<stop stop-color="#a476e8" offset="1" style="animation-play-state:paused" ></stop></linearGradient>
<path d="M 0 0 M 0 797.115 Q 168 745.3 336 742.869 T 672 707.373 T 1008 702.019 T 1344 591.666 T 1680 636.011 L 1680 205.967 Q 1512 206.087 1344 196.358 T 1008 191.131 T 672 177.209 T 336 82.448 T 0 76.6694 Z" fill="url(#lg-0.1716661510936357)" opacity="0.4" style="opacity:0.4;animation-play-state:paused" ></path>
<path d="M 0 0 M 0 751.513 Q 168 760.855 336 757.172 T 672 695.124 T 1008 689.89 T 1344 632.924 T 1680 578.475 L 1680 259.708 Q 1512 234.854 1344 233.498 T 1008 156.206 T 672 131.642 T 336 141.618 T 0 93.3409 Z" fill="url(#lg-0.1716661510936357)" opacity="0.4" style="opacity:0.4;animation-play-state:paused" ></path>
<path d="M 0 0 M 0 787.5 Q 168 724.5 336 719.741 T 672 693.988 T 1008 670.953 T 1344 635.531 T 1680 639.781 L 1680 235.914 Q 1512 213.346 1344 205.631 T 1008 182.357 T 672 155.177 T 336 149.719 T 0 88.4607 Z" fill="url(#lg-0.1716661510936357)" opacity="0.4" style="opacity:0.4;animation-play-state:paused" ></path>
<path d="M 0 0 M 0 796.69 Q 168 751.953 336 744.503 T 672 728.235 T 1008 652.197 T 1344 645.149 T 1680 612.317 L 1680 212.377 Q 1512 220.967 1344 219.744 T 1008 160.809 T 672 121.075 T 336 140.187 T 0 85.499 Z" fill="url(#lg-0.1716661510936357)" opacity="0.4" style="opacity:0.4;animation-play-state:paused" ></path></g></svg>